# xmcd CD database file
#
# Track frame offsets:
#	150
#	20690
#	38145
#
# Disc length: 780 seconds
#
# Revision: 0
# Processed by: cddbd v1.5PL3 Copyright (c) Steve Scherf et al.
# Submitted via: CDex 1.50beta9
#
DISCID=1d030a03
DTITLE=高木ブーとモーニング娘。・ココナッツ娘。・藤本美貴・石井リカ - モーニング娘。シングルメドレー〜ハワイアン〜
DYEAR=2002
DGENRE=JPop
TTITLE0=モーニング娘。シングルメドレー〜ハワイアン〜
TTITLE1=ふるさと（ハワイアンVersion)
TTITLE2=モーニング娘。シングルメドレー〜ハワイアン〜(Instrumental)
EXTD=YEAR: 2002
EXTT0=
EXTT1=
EXTT2=
PLAYORDER=
